<svg width="17" height="18" viewBox="0 0 17 18" fill="none" xmlns="http://www.w3.org/2000/svg">
<path d="M2.3837 17.4536H7.6914V11.4902H5.78444V9.52431H7.6914V7.06689C7.6914 5.71186 8.76071 4.60948 10.0751 4.60948H12.4588V6.57541H10.5518C10.0261 6.57541 9.59835 7.01634 9.59835 7.55838V9.52431H12.3728L12.0549 11.4902H9.59835V17.4536H13.889C15.2034 17.4536 16.2727 16.3512 16.2727 14.9962V3.13503C16.2727 1.77999 15.2034 0.677612 13.889 0.677612H2.3837C1.06931 0.677612 0 1.77999 0 3.13503V14.9962C0 16.3512 1.06931 17.4536 2.3837 17.4536ZM0.953479 3.13503C0.953479 2.32203 1.59509 1.66058 2.3837 1.66058H13.889C14.6776 1.66058 15.3192 2.32203 15.3192 3.13503V14.9962C15.3192 15.8092 14.6776 16.4706 13.889 16.4706H10.5518V12.4732H12.8627L13.4983 8.54134H10.5518V7.55838H13.4123V3.62651H10.0751C8.23493 3.62651 6.73792 5.16982 6.73792 7.06689V8.54134H4.83096V12.4732H6.73792V16.4706H2.3837C1.59509 16.4706 0.953479 15.8092 0.953479 14.9962V3.13503Z" fill="white"/>
</svg>
