<svg width="24" height="17" viewBox="0 0 24 17" fill="none" xmlns="http://www.w3.org/2000/svg">
<path d="M2.53018 16.8944H14.7425C16.1377 16.8944 17.2727 15.792 17.2727 14.4369V2.57582C17.2727 1.22079 16.1377 0.118408 14.7425 0.118408H2.53018C1.13502 0.118408 0 1.22079 0 2.57582V14.4369C0 15.792 1.13502 16.8944 2.53018 16.8944ZM1.01207 2.57582C1.01207 1.76283 1.69311 1.10137 2.53018 1.10137H14.7425C15.5796 1.10137 16.2606 1.76283 16.2606 2.57582V14.4369C16.2606 15.2499 15.5796 15.9114 14.7425 15.9114H2.53018C1.69311 15.9114 1.01207 15.2499 1.01207 14.4369V2.57582Z" fill="white"/>
<path d="M18.6364 12.9297C21.1476 12.9297 23.1907 10.9453 23.1907 8.50636C23.1907 6.06737 21.1476 4.08301 18.6364 4.08301C16.1252 4.08301 14.082 6.06737 14.082 8.50636C14.082 10.9453 16.1252 12.9297 18.6364 12.9297ZM18.6364 5.06597C20.5896 5.06597 22.1786 6.60928 22.1786 8.50636C22.1786 10.4034 20.5896 11.9467 18.6364 11.9467C16.6831 11.9467 15.0941 10.4034 15.0941 8.50636C15.0941 6.60928 16.6831 5.06597 18.6364 5.06597Z" fill="white"/>
<path d="M13.4092 4.82742C14.2363 4.82742 14.9092 4.17386 14.9092 3.37056C14.9092 2.56726 14.2363 1.9137 13.4092 1.9137C12.5821 1.9137 11.9092 2.56726 11.9092 3.37056C11.9092 4.17386 12.5821 4.82742 13.4092 4.82742ZM13.4092 2.88494C13.6848 2.88494 13.9092 3.10284 13.9092 3.37056C13.9092 3.63828 13.6848 3.85618 13.4092 3.85618C13.1335 3.85618 12.9092 3.63828 12.9092 3.37056C12.9092 3.10284 13.1335 2.88494 13.4092 2.88494Z" fill="white"/>
</svg>
